<?xml version="1.0" standalone="no"?>
<!DOCTYPE svg PUBLIC "-//W3C//DTD SVG 1.1//EN" "http://www.w3.org/Graphics/SVG/1.1/DTD/svg11.dtd" >
<svg xmlns="http://www.w3.org/2000/svg" xmlns:xlink="http://www.w3.org/1999/xlink" version="1.1">
<metadata></metadata>
<defs>
<font id="niteowlregular" horiz-adv-x="2142" >
<font-face units-per-em="2048" ascent="1638" descent="-410" />
<missing-glyph horiz-adv-x="1728" />
<glyph horiz-adv-x="0" />
<glyph horiz-adv-x="682" />
<glyph unicode=" "  horiz-adv-x="1728" />
<glyph unicode="&#x09;" horiz-adv-x="1728" />
<glyph unicode="&#xa0;" horiz-adv-x="1728" />
<glyph unicode="!" horiz-adv-x="573" d="M96 467v1024q0 38 27 65t65 27h297v-1024q0 -38 -27 -65t-65 -27h-297zM98 4v297q0 38 27 65t65 27h295v-297q0 -38 -27 -65t-65 -27h-295z" />
<glyph unicode="&#x22;" horiz-adv-x="1040" d="M84 1190v326q0 28 20 47.5t48 19.5h249q28 0 48 -19.5t20 -47.5v-259q0 -28 -20 -47.5t-48 -19.5h-118v-180h-90zM561 1190v326q0 28 20 47.5t48 19.5h250q28 0 47.5 -19.5t19.5 -47.5v-259q0 -28 -19.5 -47.5t-47.5 -19.5h-119v-180h-90z" />
<glyph unicode="#" horiz-adv-x="1746" d="M86 412v301h311v172h-219q-38 0 -65 27t-27 65v301h311v219q0 38 27 65t65 27h302v-311h172v219q0 38 27 65t65 27h301v-311h219q38 0 65 -27t27 -65v-301h-311v-172h219q38 0 65 -27t27 -65v-302h-311v-219q0 -38 -27 -65t-65 -27h-301v311h-172v-219q0 -38 -27.5 -65 t-65.5 -27h-301v311h-219q-38 0 -65 27.5t-27 65.5zM791 713h172v172h-172v-172z" />
<glyph unicode="$" horiz-adv-x="1796" d="M72 370l1 199h318v-103h1012v184h-1107q-93 0 -158.5 66t-65.5 159v339q0 93 65.5 158.5t158.5 65.5h400v53q0 38 27 65t65 27h207q38 0 65 -27t27 -65v-53h409q93 0 158.5 -65.5t65.5 -158.5l-1 -199h-318v103h-1010v-147h1105q93 0 158.5 -66t65.5 -159v-376 q0 -93 -65.5 -159t-158.5 -66h-409v-49q0 -38 -27 -65t-65 -27h-207q-38 0 -65 27t-27 65v49h-400q-93 0 -158.5 66t-65.5 159z" />
<glyph unicode="%" horiz-adv-x="2177" d="M84 4l1610 1579h383l-1610 -1579h-383zM500 1194v297q0 38 27 65t65 27h295v-297q0 -38 -27 -65t-65 -27h-295zM1278 4v297q0 38 27 65t65 27h295v-297q0 -38 -27 -65t-65 -27h-295z" />
<glyph unicode="'" horiz-adv-x="573" d="M88 1257v259q0 28 20 47.5t48 19.5h250q28 0 47.5 -19.5t19.5 -47.5v-326l-108 -180h-91v180h-118q-28 0 -48 19.5t-20 47.5z" />
<glyph unicode="(" horiz-adv-x="806" d="M91 824q0 108 21.5 226.5t52.5 210t61.5 168t51.5 117.5l22 41h299q38 0 65 -27t27 -65q-8 -14 -22.5 -38.5t-50.5 -101.5t-63.5 -154t-50 -184t-22.5 -203q0 -100 21.5 -210.5t52 -197t61.5 -159t53 -111.5l21 -40q0 -38 -27 -65t-65 -27h-299q-8 17 -22.5 47.5 t-50.5 124t-63.5 186t-50 221t-22.5 241.5z" />
<glyph unicode=")" horiz-adv-x="843" d="M126 96q8 15 22.5 41.5t50.5 108t63.5 162.5t50 193.5t22.5 212.5q0 96 -21.5 201.5t-52.5 187.5t-61.5 150t-51.5 105l-22 37q0 38 27 65t65 27h299q8 -15 22.5 -43t50.5 -113.5t63.5 -171.5t50 -206.5t22.5 -228.5q0 -113 -21.5 -239.5t-52 -225.5t-61.5 -182t-53 -128 l-21 -45h-299q-38 0 -65 27t-27 65z" />
<glyph unicode="*" horiz-adv-x="770" d="M74 1184v186h83l-59 59l132 132l59 -59v83h186v-83l59 59l132 -132l-59 -59h83v-186h-83l59 -59l-132 -132l-59 59v-83h-186v83l-59 -59l-132 132l59 59h-83z" />
<glyph unicode="+" horiz-adv-x="1046" d="M88 719v303h234v143q0 38 27 65t65 27h303v-235h143q38 0 65 -27t27 -65v-303h-235v-142q0 -38 -27 -65t-65 -27h-303v234h-142q-38 0 -65 27t-27 65z" />
<glyph unicode="," horiz-adv-x="591" d="M100 250v258q0 28 20 47.5t48 19.5h250q28 0 47.5 -19.5t19.5 -47.5v-326l-108 -180h-90v180h-119q-28 0 -48 20t-20 48z" />
<glyph unicode="-" horiz-adv-x="616" d="M117 678v283h387v-283h-387z" />
<glyph unicode="." horiz-adv-x="389" d="M0 201q0 80 57.5 137t137.5 57t137 -57t57 -137t-57 -137.5t-137 -57.5t-137.5 57.5t-57.5 137.5z" />
<glyph unicode="/" horiz-adv-x="2177" d="M78 4l1610 1579h383l-1610 -1579h-383z" />
<glyph unicode="0" horiz-adv-x="2082" d="M43 266v1055q0 107 75.5 182.5t182.5 75.5h1479q107 0 182.5 -75.5t75.5 -182.5v-1055q0 -107 -75.5 -182.5t-182.5 -75.5h-1479q-107 0 -182.5 75.5t-75.5 182.5zM432 399h1225v793h-1225v-793z" />
<glyph unicode="1" horiz-adv-x="1871" d="M45 4v120q0 112 79.5 191.5t191.5 79.5h417v795h-416v391h269h147h133q107 0 182.5 -75.5t75.5 -182.5v-215v-713h419q113 0 192.5 -79.5t79.5 -191.5v-120h-1770z" />
<glyph unicode="2" horiz-adv-x="2088" d="M41 12v127q0 67 31 123.5t84 91.5l1206 838h-942v-205l-371 80v125v6v121q0 107 75.5 182.5t182.5 75.5h1381q102 0 176 -69.5t81 -170.5h1v-207h-1l-1053 -733h802v127l344 -82v-45v-104v-23q0 -107 -75.5 -182.5t-182.5 -75.5h-1739z" />
<glyph unicode="3" horiz-adv-x="2117" d="M59 262v178l394 69v-112h1080q53 0 89.5 36.5t36.5 89.5t-36.5 89.5t-89.5 36.5h-695v295h621q53 0 89.5 37t36.5 89t-36.5 89t-89.5 37h-1006v-85l-383 60v152q0 107 75.5 182.5t182.5 75.5h1398q107 0 183 -75.5t76 -182.5v-240q0 -84 -48.5 -150.5t-125.5 -93.5 q104 -5 175.5 -79t71.5 -178v-320q0 -107 -75.5 -182.5t-182.5 -75.5h-1483q-107 0 -182.5 75.5t-75.5 182.5z" />
<glyph unicode="4" horiz-adv-x="2134" d="M61 659v129v531q0 107 75.5 182.5t182.5 75.5h130v-789h841v787h129q107 0 182.5 -75.5t75.5 -182.5v-529h383v-387h-383v-391h-387v391h-143h-828q-107 0 -182.5 75.5t-75.5 182.5z" />
<glyph unicode="5" horiz-adv-x="2109" d="M51 4v531l387 -80v-70h1091q58 0 99 41t41 99t-41 99.5t-99 41.5h-1212q-109 0 -186.5 77t-77.5 187v647h1989v-119q0 -110 -77 -187t-187 -77h-1342v-143h60h1288q109 0 186.5 -77.5t77.5 -187.5v-458h-6v-60q0 -110 -77 -187t-187 -77h-1727z" />
<glyph unicode="6" horiz-adv-x="2109" d="M49 272v303v435v186v18v99q0 109 77.5 186.5t186.5 77.5h129h23h1120h195q110 0 187 -77.5t77 -186.5v-117v-49v-43h-381v92h-1127q-39 0 -66.5 -27.5t-27.5 -66.5q0 -38 27.5 -65t65.5 -27h526h719q109 0 186.5 -77.5t77.5 -187.5v-473q0 -110 -77 -187t-187 -77h-1467 q-109 0 -186.5 77t-77.5 187zM434 383h1106q52 0 88.5 36.5t36.5 88.5v2q0 52 -36.5 88.5t-88.5 36.5h-1106v-252z" />
<glyph unicode="7" horiz-adv-x="2113" d="M53 975v94v123v117q0 109 77.5 186.5t186.5 77.5h127h166h504h674q110 0 187 -77.5t77 -186.5v-116v-1h-1l-1400 -1186h-589l1399 1186h-1017v-217h-391z" />
<glyph unicode="8" horiz-adv-x="2103" d="M49 274v406q0 109 77 186q-77 77 -77 187v260q0 109 77.5 186.5t186.5 77.5h1465q110 0 187 -77.5t77 -186.5v-260q0 -110 -77 -187q77 -77 77 -186v-406q0 -110 -77 -187t-187 -77h-1465q-109 0 -186.5 77t-77.5 187zM434 389h1227v207h-1227v-207zM434 983h1227v207 h-1227v-207z" />
<glyph unicode="9" horiz-adv-x="2121" d="M61 272v117v49v43h381v-92h1127q39 0 66.5 27.5t27.5 66.5q0 38 -27.5 65t-65.5 27h-526h-718q-110 0 -187.5 77.5t-77.5 187.5v473q0 109 77.5 186.5t187.5 77.5h1466q110 0 187 -77.5t77 -186.5v-303v-435v-186v-18v-99q0 -110 -77 -187t-187 -77h-129h-23h-1120h-194 q-110 0 -187.5 77.5t-77.5 186.5zM440 1075q0 -52 36.5 -88.5t88.5 -36.5h1106v252h-1106q-52 0 -88.5 -36.5t-36.5 -88.5v-2z" />
<glyph unicode=":" horiz-adv-x="622" d="M104 522q0 81 57 137.5t138 56.5q80 0 137.5 -57t57.5 -137t-57.5 -137.5t-137.5 -57.5t-137.5 57.5t-57.5 137.5zM104 1231q0 80 57.5 137t137.5 57t137.5 -57t57.5 -137t-57.5 -137.5t-137.5 -57.5t-137.5 57.5t-57.5 137.5z" />
<glyph unicode=";" horiz-adv-x="585" d="M98 1259q0 80 57.5 137.5t137.5 57.5t137 -57.5t57 -137.5t-57 -137t-137 -57t-137.5 57t-57.5 137zM100 424v258q0 28 20 47.5t48 19.5h250q28 0 47.5 -19.5t19.5 -47.5v-326l-108 -180h-90v180h-119q-28 0 -48 20t-20 48z" />
<glyph unicode="&#x3c;" horiz-adv-x="788" d="M89 826q0 31 22 53l566 566v-445l-174 -174l174 -174v-445l-566 566q-22 22 -22 53z" />
<glyph unicode="=" horiz-adv-x="1046" d="M92 398v307q0 38 27 65t65 27h774v-307q0 -38 -27 -65t-65 -27h-774zM92 853v307q0 38 27 65t65 27h774v-307q0 -38 -27 -65t-65 -27h-774z" />
<glyph unicode="&#x3e;" horiz-adv-x="776" d="M95 207v444l174 175l-174 174v445l566 -566q22 -22 22 -53t-22 -53z" />
<glyph unicode="?" horiz-adv-x="2134" d="M61 1307q0 114 80.5 194t194.5 80h1446q114 0 194 -80t80 -194v-461q0 -114 -80 -194t-194 -80h-527v-97h-389v97v18v374h803v225h-1217v-126h-389zM862 4v295q0 38 27 65t65 27h303v-295q0 -38 -27 -65t-65 -27h-303z" />
<glyph unicode="A" horiz-adv-x="2160" d="M71 3v1326q0 107 76.5 183.5t183.5 76.5h1490q107 0 183 -76.5t76 -183.5v-1326h-389v635h-1233v-635h-387zM458 1035h1233v170h-1233v-170z" />
<glyph unicode="B" horiz-adv-x="2131" d="M59 4v1348q0 97 69 166t167 69h150h1384q97 0 166 -68.5t69 -166.5v-318q0 -47 -13 -85.5t-33.5 -62.5t-46 -42.5t-50.5 -28t-45.5 -15t-33.5 -6.5l-13 -2q97 0 166 -69t69 -166v-317q0 -98 -69 -167t-166 -69h-1770zM445 383h1312v216h-1312v-216zM445 992h1312v216 h-1312v-216z" />
<glyph unicode="C" horiz-adv-x="2136" d="M54 251v1091q0 101 72 173t173 72h1518q101 0 173 -72t72 -173v-134h-1625v-821h1625v-136q0 -101 -72 -172.5t-173 -71.5h-1518q-101 0 -173 71.5t-72 172.5z" />
<glyph unicode="D" horiz-adv-x="2127" d="M54 6v397v928q0 106 75 181t181 75h961q160 0 306 -62t252 -167t168.5 -250.5t62.5 -305.5v-5q0 -160 -62.5 -306.5t-168.5 -252.5t-252 -169t-306 -63h-1217zM443 392h829q166 0 284 119t118 286q0 166 -117.5 282.5t-284.5 116.5h-829v-804z" />
<glyph unicode="E" d="M65 244v1107q0 98 69 167t167 69h1772v-391h-1624v-209h831v-384h-831v-209h1624v-386h-1772q-98 0 -167 69t-69 167z" />
<glyph unicode="F" d="M65 6v1337q0 100 70.5 170.5t170.5 70.5h1765v-386h-1620v-208h832v-387h-832v-597h-386z" />
<glyph unicode="G" horiz-adv-x="2138" d="M73 5v1301q0 117 82.5 199t199.5 82h1330q117 0 199.5 -82t82.5 -199v-112h-1504v-800h816q114 0 209.5 58.5t146.5 156.5h-664v325h685h404q0 -2 1 -8t1 -8q6 -39 7 -56v-11q0 -1 0.5 -1t0.5 -1v-10q0 -3 0.5 -7t0.5 -7v-8v-3v-15v-2v-11v-4v-7v-5q0 -1 -0.5 -3.5 t-0.5 -3.5v-4v-7v-4q0 -2 -0.5 -5t-0.5 -4v-2q0 -2 -0.5 -5.5t-0.5 -5.5v-3q0 -1 -0.5 -4t-0.5 -5l-1 -1v-2t-0.5 -4t-0.5 -4v-3q0 -1 -0.5 -4t-0.5 -4v-3q0 -1 -0.5 -4t-0.5 -5l-1 -1v-1q0 -4 -2 -11.5t-2 -10.5v-3q0 -1 -1 -3.5t-1 -4.5v-3q0 -1 -1 -4t-1 -4v-3 q0 -2 -1 -5t-1 -4v-1l-1 -1q-1 -2 -1.5 -5.5t-0.5 -5.5q-64 -263 -278.5 -433.5t-491.5 -170.5h-1206z" />
<glyph unicode="H" horiz-adv-x="2146" d="M70 287v1299h385v-598h1235v598h103q117 0 199.5 -82.5t82.5 -199.5v-1299h-385v598h-1235v-598h-103q-117 0 -199.5 82.5t-82.5 199.5z" />
<glyph unicode="I" horiz-adv-x="507" d="M60 8v1581h385v-1581h-385z" />
<glyph unicode="J" d="M60 8v386h1619v814h-724v376l1111 2v-1337q0 -100 -71 -170.5t-171 -70.5h-1764z" />
<glyph unicode="K" horiz-adv-x="2127" d="M60 231v1356h382v-541l857 538h737l-1265 -786l1294 -793h-738l-885 546v-546h-157q-94 0 -159.5 66t-65.5 160z" />
<glyph unicode="L" horiz-adv-x="2148" d="M59 247v1340h387v-1195h1622v-386h-1767q-100 0 -171 70.5t-71 170.5z" />
<glyph unicode="M" horiz-adv-x="2144" d="M61 6v1320q0 107 75.5 183t182.5 76h127l622 -628l614 627v1h1h123h2q107 0 182.5 -76t75.5 -183v-1320h-384v1022l-432 -434q-76 -76 -182.5 -76t-182.5 76l-439 442v-1030h-385z" />
<glyph unicode="N" d="M66 1v1333q0 101 71.5 173t173.5 72h137h1v-1l1235 -1073v1074h384v-1333q0 -102 -71.5 -174t-173.5 -72h-139l-1235 1073v-1072h-383z" />
<glyph unicode="O" d="M67 249v1082q0 102 72.5 174t174.5 72h1515q102 0 174.5 -72t72.5 -174v-1082q0 -102 -72.5 -174.5t-174.5 -72.5h-1515q-102 0 -174.5 72.5t-72.5 174.5zM454 388h1235v803h-1235v-803z" />
<glyph unicode="P" horiz-adv-x="2129" d="M54 2v766v566q0 101 72 172.5t173 71.5h138h1382q101 0 172.5 -71.5t71.5 -172.5v-480q0 -101 -71.5 -172.5t-172.5 -71.5h-1382v-608h-383zM437 990h1245v208h-1245v-208z" />
<glyph unicode="Q" horiz-adv-x="2152" d="M58 224v1144q0 90 63.5 153.5t154.5 63.5h1346q90 0 154 -63.5t64 -153.5v-1129l234 -233h-441h-11h-1346q-90 0 -154 64t-64 154zM400 347h848l-119 118l241 241l128 -127v665h-1098v-897z" />
<glyph unicode="R" horiz-adv-x="2144" d="M63 3v764v566q0 101 72 173t173 72h138h1385q101 0 173 -72t72 -173v-480q0 -101 -72 -173t-173 -72h-356l602 -609h-542l-602 609h-487v-605h-383zM446 989h1248v208h-1248v-208z" />
<glyph unicode="S" horiz-adv-x="2152" d="M61 275l2 244h389v-126h1239v226h-1355q-114 0 -194 80t-80 194v415q0 114 80 194.5t194 80.5h1468q114 0 194 -80.5t80 -194.5l-1 -243h-389v126h-1236v-180h1352q114 0 194 -80.5t80 -194.5v-461q0 -114 -80 -194t-194 -80h-1468q-114 0 -194.5 80t-80.5 194z" />
<glyph unicode="T" horiz-adv-x="2154" d="M66 1194v103q0 117 82.5 199t199.5 82h1445q117 0 199.5 -82t82.5 -199v-103h-812v-1195h-385v1195h-812z" />
<glyph unicode="U" horiz-adv-x="2152" d="M71 249v1082q0 102 72.5 174t174.5 72h140v-1189h1238l1 1189h139q102 0 174 -72t72 -174v-1082q0 -102 -72 -174.5t-174 -72.5h-1518q-102 0 -174.5 72.5t-72.5 174.5z" />
<glyph unicode="V" horiz-adv-x="2117" d="M53 1581h319h64t45 -6.5t34.5 -10.5t27.5 -25.5t30.5 -38l38.5 -60.5l443 -703q227 363 385 612q28 44 40 63.5t33.5 49t29 40t27.5 28.5t27 22t31 13t35.5 10t43 3.5t51.5 2.5h64h234l-770 -1212l-231 -365l-129 203l-103 162z" />
<glyph unicode="W" horiz-adv-x="2152" d="M66 263v1316h386v-1026l443 442q76 76 183.5 76t183.5 -76l434 -435v1019h387v-1316q0 -107 -76.5 -183t-183.5 -76h-2h-124h-1v1l-617 627l-627 -628h-127q-107 0 -183 76t-76 183z" />
<glyph unicode="X" horiz-adv-x="2181" d="M66 1585h270q62 1 87 1h5q24 0 62 -5q42 -5 55 -7.5t46.5 -18t45.5 -26t48 -43t58 -56.5t72 -78l259 -279q135 145 261 281q65 71 91 99t69.5 62.5t59 42t64 17.5t80 10h110.5h274l-742 -798l734 -791h-281q-110 0 -150 2t-95.5 28.5t-94 66t-128.5 135.5q-3 4 -5 6 l-247 266q-112 -120 -226 -243q-139 -150 -185 -188q-66 -55 -142 -66q-45 -7 -177 -7h-272l736 791z" />
<glyph unicode="Y" horiz-adv-x="2136" d="M62 957v626h389v-498h1223v498h387v-626q0 -107 -76.5 -183t-183.5 -76h-544v-697h-389v697h-547q-107 0 -183 76t-76 183z" />
<glyph unicode="Z" horiz-adv-x="2134" d="M62 2v382v1h1l1278 807h-1279v108q0 114 80.5 194.5t194.5 80.5h1609h110v-383l-1277 -807h1277v-108q0 -114 -80 -194.5t-194 -80.5h-1445h-163h-112z" />
<glyph unicode="[" horiz-adv-x="972" d="M101 95v1396q0 38 27 65.5t65 27.5h684v-387h-387v-809h387v-385h-684q-38 0 -65 27t-27 65z" />
<glyph unicode="]" horiz-adv-x="948" d="M88 4v385h387v807h-387v387h684q38 0 65 -27t27 -65v-1395q0 -38 -27 -65t-65 -27h-684z" />
<glyph unicode="^" horiz-adv-x="1458" d="M102 995l566 566q22 22 53 22t53 -22l566 -566h-445l-174 174l-174 -174h-445z" />
<glyph unicode="_" horiz-adv-x="948" d="M55 -14h729q38 0 65.5 -27t27.5 -65v-295h-730q-38 0 -65 27t-27 65v295z" />
<glyph unicode="a" horiz-adv-x="2160" d="M71 3v1326q0 107 76.5 183.5t183.5 76.5h1490q107 0 183 -76.5t76 -183.5v-1326h-389v635h-1233v-635h-387zM458 1035h1233v170h-1233v-170z" />
<glyph unicode="b" horiz-adv-x="2131" d="M59 4v1348q0 97 69 166t167 69h150h1384q97 0 166 -68.5t69 -166.5v-318q0 -47 -13 -85.5t-33.5 -62.5t-46 -42.5t-50.5 -28t-45.5 -15t-33.5 -6.5l-13 -2q97 0 166 -69t69 -166v-317q0 -98 -69 -167t-166 -69h-1770zM445 383h1312v216h-1312v-216zM445 992h1312v216 h-1312v-216z" />
<glyph unicode="c" horiz-adv-x="2136" d="M54 251v1091q0 101 72 173t173 72h1518q101 0 173 -72t72 -173v-134h-1625v-821h1625v-136q0 -101 -72 -172.5t-173 -71.5h-1518q-101 0 -173 71.5t-72 172.5z" />
<glyph unicode="d" horiz-adv-x="2127" d="M54 6v397v928q0 106 75 181t181 75h961q160 0 306 -62t252 -167t168.5 -250.5t62.5 -305.5v-5q0 -160 -62.5 -306.5t-168.5 -252.5t-252 -169t-306 -63h-1217zM443 392h829q166 0 284 119t118 286q0 166 -117.5 282.5t-284.5 116.5h-829v-804z" />
<glyph unicode="e" d="M65 244v1107q0 98 69 167t167 69h1772v-391h-1624v-209h831v-384h-831v-209h1624v-386h-1772q-98 0 -167 69t-69 167z" />
<glyph unicode="f" d="M65 6v1337q0 100 70.5 170.5t170.5 70.5h1765v-386h-1620v-208h832v-387h-832v-597h-386z" />
<glyph unicode="g" horiz-adv-x="2138" d="M73 5v1301q0 117 82.5 199t199.5 82h1330q117 0 199.5 -82t82.5 -199v-112h-1504v-800h816q114 0 209.5 58.5t146.5 156.5h-664v325h685h404q0 -2 1 -8t1 -8q6 -39 7 -56v-11q0 -1 0.5 -1t0.5 -1v-10q0 -3 0.5 -7t0.5 -7v-8v-3v-15v-2v-11v-4v-7v-5q0 -1 -0.5 -3.5 t-0.5 -3.5v-4v-7v-4q0 -2 -0.5 -5t-0.5 -4v-2q0 -2 -0.5 -5.5t-0.5 -5.5v-3q0 -1 -0.5 -4t-0.5 -5l-1 -1v-2t-0.5 -4t-0.5 -4v-3q0 -1 -0.5 -4t-0.5 -4v-3q0 -1 -0.5 -4t-0.5 -5l-1 -1v-1q0 -4 -2 -11.5t-2 -10.5v-3q0 -1 -1 -3.5t-1 -4.5v-3q0 -1 -1 -4t-1 -4v-3 q0 -2 -1 -5t-1 -4v-1l-1 -1q-1 -2 -1.5 -5.5t-0.5 -5.5q-64 -263 -278.5 -433.5t-491.5 -170.5h-1206z" />
<glyph unicode="h" horiz-adv-x="2146" d="M70 287v1299h385v-598h1235v598h103q117 0 199.5 -82.5t82.5 -199.5v-1299h-385v598h-1235v-598h-103q-117 0 -199.5 82.5t-82.5 199.5z" />
<glyph unicode="i" horiz-adv-x="507" d="M60 8v1581h385v-1581h-385z" />
<glyph unicode="j" d="M60 8v386h1619v814h-724v376l1111 2v-1337q0 -100 -71 -170.5t-171 -70.5h-1764z" />
<glyph unicode="k" horiz-adv-x="2127" d="M60 231v1356h382v-541l857 538h737l-1265 -786l1294 -793h-738l-885 546v-546h-157q-94 0 -159.5 66t-65.5 160z" />
<glyph unicode="l" horiz-adv-x="2148" d="M59 247v1340h387v-1195h1622v-386h-1767q-100 0 -171 70.5t-71 170.5z" />
<glyph unicode="m" horiz-adv-x="2144" d="M61 6v1320q0 107 75.5 183t182.5 76h127l622 -628l614 627v1h1h123h2q107 0 182.5 -76t75.5 -183v-1320h-384v1022l-432 -434q-76 -76 -182.5 -76t-182.5 76l-439 442v-1030h-385z" />
<glyph unicode="n" d="M66 1v1333q0 101 71.5 173t173.5 72h137h1v-1l1235 -1073v1074h384v-1333q0 -102 -71.5 -174t-173.5 -72h-139l-1235 1073v-1072h-383z" />
<glyph unicode="o" d="M67 249v1082q0 102 72.5 174t174.5 72h1515q102 0 174.5 -72t72.5 -174v-1082q0 -102 -72.5 -174.5t-174.5 -72.5h-1515q-102 0 -174.5 72.5t-72.5 174.5zM454 388h1235v803h-1235v-803z" />
<glyph unicode="p" horiz-adv-x="2129" d="M54 2v766v566q0 101 72 172.5t173 71.5h138h1382q101 0 172.5 -71.5t71.5 -172.5v-480q0 -101 -71.5 -172.5t-172.5 -71.5h-1382v-608h-383zM437 990h1245v208h-1245v-208z" />
<glyph unicode="q" horiz-adv-x="2152" d="M58 224v1144q0 90 63.5 153.5t154.5 63.5h1346q90 0 154 -63.5t64 -153.5v-1129l234 -233h-441h-11h-1346q-90 0 -154 64t-64 154zM400 347h848l-119 118l241 241l128 -127v665h-1098v-897z" />
<glyph unicode="r" horiz-adv-x="2144" d="M63 3v764v566q0 101 72 173t173 72h138h1385q101 0 173 -72t72 -173v-480q0 -101 -72 -173t-173 -72h-356l602 -609h-542l-602 609h-487v-605h-383zM446 989h1248v208h-1248v-208z" />
<glyph unicode="s" horiz-adv-x="2152" d="M61 275l2 244h389v-126h1239v226h-1355q-114 0 -194 80t-80 194v415q0 114 80 194.5t194 80.5h1468q114 0 194 -80.5t80 -194.5l-1 -243h-389v126h-1236v-180h1352q114 0 194 -80.5t80 -194.5v-461q0 -114 -80 -194t-194 -80h-1468q-114 0 -194.5 80t-80.5 194z" />
<glyph unicode="t" horiz-adv-x="2154" d="M66 1194v103q0 117 82.5 199t199.5 82h1445q117 0 199.5 -82t82.5 -199v-103h-812v-1195h-385v1195h-812z" />
<glyph unicode="u" horiz-adv-x="2152" d="M71 249v1082q0 102 72.5 174t174.5 72h140v-1189h1238l1 1189h139q102 0 174 -72t72 -174v-1082q0 -102 -72 -174.5t-174 -72.5h-1518q-102 0 -174.5 72.5t-72.5 174.5z" />
<glyph unicode="v" horiz-adv-x="2117" d="M53 1581h319h64t45 -6.5t34.5 -10.5t27.5 -25.5t30.5 -38l38.5 -60.5l443 -703q227 363 385 612q28 44 40 63.5t33.5 49t29 40t27.5 28.5t27 22t31 13t35.5 10t43 3.5t51.5 2.5h64h234l-770 -1212l-231 -365l-129 203l-103 162z" />
<glyph unicode="w" horiz-adv-x="2152" d="M66 263v1316h386v-1026l443 442q76 76 183.5 76t183.5 -76l434 -435v1019h387v-1316q0 -107 -76.5 -183t-183.5 -76h-2h-124h-1v1l-617 627l-627 -628h-127q-107 0 -183 76t-76 183z" />
<glyph unicode="x" horiz-adv-x="2181" d="M66 1585h270q62 1 87 1h5q24 0 62 -5q42 -5 55 -7.5t46.5 -18t45.5 -26t48 -43t58 -56.5t72 -78l259 -279q135 145 261 281q65 71 91 99t69.5 62.5t59 42t64 17.5t80 10h110.5h274l-742 -798l734 -791h-281q-110 0 -150 2t-95.5 28.5t-94 66t-128.5 135.5q-3 4 -5 6 l-247 266q-112 -120 -226 -243q-139 -150 -185 -188q-66 -55 -142 -66q-45 -7 -177 -7h-272l736 791z" />
<glyph unicode="y" horiz-adv-x="2136" d="M62 957v626h389v-498h1223v498h387v-626q0 -107 -76.5 -183t-183.5 -76h-544v-697h-389v697h-547q-107 0 -183 76t-76 183z" />
<glyph unicode="z" horiz-adv-x="2134" d="M62 2v382v1h1l1278 807h-1279v108q0 114 80.5 194.5t194.5 80.5h1609h110v-383l-1277 -807h1277v-108q0 -114 -80 -194.5t-194 -80.5h-1445h-163h-112z" />
<glyph unicode="|" horiz-adv-x="571" d="M84 4v1491q0 38 27 65t65 27h297v-1491q0 -38 -27 -65t-65 -27h-297z" />
<glyph unicode="&#xad;" horiz-adv-x="616" d="M117 678v283h387v-283h-387z" />
<glyph unicode="&#x2000;" horiz-adv-x="794" />
<glyph unicode="&#x2001;" horiz-adv-x="1589" />
<glyph unicode="&#x2002;" horiz-adv-x="794" />
<glyph unicode="&#x2003;" horiz-adv-x="1589" />
<glyph unicode="&#x2004;" horiz-adv-x="529" />
<glyph unicode="&#x2005;" horiz-adv-x="397" />
<glyph unicode="&#x2006;" horiz-adv-x="264" />
<glyph unicode="&#x2007;" horiz-adv-x="264" />
<glyph unicode="&#x2008;" horiz-adv-x="198" />
<glyph unicode="&#x2009;" horiz-adv-x="317" />
<glyph unicode="&#x200a;" horiz-adv-x="88" />
<glyph unicode="&#x2010;" horiz-adv-x="616" d="M117 678v283h387v-283h-387z" />
<glyph unicode="&#x2011;" horiz-adv-x="616" d="M117 678v283h387v-283h-387z" />
<glyph unicode="&#x2012;" horiz-adv-x="616" d="M117 678v283h387v-283h-387z" />
<glyph unicode="&#x2013;" horiz-adv-x="1253" d="M117 678v283h1024v-283h-1024z" />
<glyph unicode="&#x2014;" horiz-adv-x="2277" d="M117 678v283h2048v-283h-2048z" />
<glyph unicode="&#x202f;" horiz-adv-x="317" />
<glyph unicode="&#x205f;" horiz-adv-x="397" />
<glyph unicode="&#x25fc;" horiz-adv-x="1587" d="M0 0v1587h1587v-1587h-1587z" />
</font>
</defs>
</svg>
